<svg xmlns="http://www.w3.org/2000/svg" viewBox="0 0 100 100" width="100" height="100">
  <defs>
    <linearGradient id="plane-gradient" x1="0%" y1="0%" x2="100%" y2="100%">
      <stop offset="0%" stop-color="#4e73df" />
      <stop offset="100%" stop-color="#36b9cc" />
    </linearGradient>
  </defs>
  
  <!-- Paper Airplane -->
  <path d="M95,10 L30,45 L10,35 L95,10 Z" fill="url(#plane-gradient)" />
  <path d="M95,10 L45,80 L30,45 L95,10 Z" fill="url(#plane-gradient)" opacity="0.8" />
  <path d="M30,45 L45,80 L25,55 L30,45 Z" fill="url(#plane-gradient)" opacity="0.9" />
  
  <!-- Path Line -->
  <path d="M5,20 Q20,25 40,22 T80,30 T95,10" fill="none" stroke="#f8f9fc" stroke-width="1" stroke-dasharray="2,2" opacity="0.5" />
  
  <!-- Speed Lines -->
  <path d="M80,15 L85,13" stroke="#f8f9fc" stroke-width="1.5" stroke-linecap="round" />
  <path d="M75,20 L80,18" stroke="#f8f9fc" stroke-width="1.5" stroke-linecap="round" />
  <path d="M70,25 L75,23" stroke="#f8f9fc" stroke-width="1.5" stroke-linecap="round" />
  
  <!-- Sparkles -->
  <circle cx="95" cy="10" r="2" fill="#f6c23e" />
  <circle cx="92" cy="12" r="1" fill="white" />
  <circle cx="90" cy="15" r="0.8" fill="white" />
</svg> 